<svg width="64" height="64" viewBox="0 0 64 64" fill="none" xmlns="http://www.w3.org/2000/svg">
<path d="M30.7429 43.3884C30.8536 43.4776 30.9743 43.5739 31.0864 43.6617C28.8338 45.1446 26.124 46 23.2188 46C15.364 46 9 39.7386 9 32C9 24.2685 15.364 18 23.2101 18C26.124 18 28.8338 18.8554 31.0807 20.3298C30.9671 20.4261 30.855 20.5224 30.7644 20.6187C27.4049 23.4796 25.4728 27.6336 25.4728 32C25.4728 36.3664 27.3977 40.5204 30.7443 43.3884H30.7429ZM40.7913 18C37.8702 18 35.1676 18.8554 32.9207 20.3298C33.0343 20.4261 33.1464 20.5224 33.237 20.6187C36.5966 23.4796 38.5286 27.6336 38.5286 32C38.5286 36.3607 36.6037 40.5133 33.2571 43.3884C33.1464 43.4776 33.0257 43.5739 32.9136 43.6617C35.1662 45.1446 37.8688 46 40.7812 46C48.636 46 55 39.7386 55 32C55 24.2685 48.6374 18 40.7913 18ZM32.0007 21.0025C31.8124 21.1427 31.6399 21.2815 31.4616 21.4373C28.4658 24.0051 26.5725 27.7823 26.5725 32.0014C26.5725 36.2205 28.4658 39.9964 31.4616 42.5655C31.6341 42.7199 31.8196 42.8672 32.0007 43.0074C32.189 42.8672 32.3615 42.7199 32.5398 42.5655C35.5356 39.9978 37.4289 36.2205 37.4289 32.0014C37.4289 27.7823 35.5356 24.0065 32.5398 21.4373C32.3673 21.283 32.189 21.1427 32.0007 21.0025Z" fill="#7A7A7A"/>
</svg>
