<svg width="64" height="64" viewBox="0 0 64 64" fill="none" xmlns="http://www.w3.org/2000/svg">
<path d="M27.2022 34.4613C26.9937 35.6468 26.1674 41.1731 25.9227 42.735C25.9047 42.8466 25.8628 42.8891 25.7438 42.8891H21.3057C20.8536 42.8891 20.5261 42.4821 20.5861 42.0306L24.0731 19.0679C24.1626 18.4751 24.6738 18.0246 25.263 18.0246C34.3247 18.0246 35.0863 17.7964 37.4005 18.729C40.9761 20.1674 41.3035 23.6379 40.0184 27.3919C38.739 31.2576 35.7051 32.9182 31.683 32.9676C29.1013 33.0111 27.5477 32.5349 27.2031 34.4613H27.2022ZM41.8214 25.5761C41.7138 25.4961 41.6729 25.4645 41.6424 25.6562C41.5234 26.3596 41.3388 27.0452 41.1188 27.7308C38.7447 34.7577 32.1647 34.1462 28.9519 34.1462C28.5892 34.1462 28.3512 34.3497 28.3036 34.7261C26.9594 43.3949 26.691 45.2038 26.691 45.2038C26.631 45.6424 26.8995 46 27.3212 46H31.0995C31.6116 46 32.0334 45.6108 32.1352 45.0803C32.1771 44.7473 32.0695 45.4567 32.992 39.4433C33.2661 38.0849 33.843 38.2272 34.735 38.2272C38.9598 38.2272 42.2555 36.449 43.237 31.2931C43.6235 29.1444 43.5111 26.8841 41.8214 25.5752V25.5761Z" fill="#7A7A7A"/>
</svg>
