<svg width="64" height="64" viewBox="0 0 64 64" fill="none" xmlns="http://www.w3.org/2000/svg">
<path d="M45.3172 23.7356C44.3725 23.3834 42.8904 23 41.0561 23C36.3657 23 33.0511 25.3699 33.0309 28.7616C32.9924 31.2545 35.3807 32.6595 37.1857 33.4997C39.0402 34.36 39.6602 34.8956 39.651 35.6587C39.6418 36.8345 38.1689 37.3591 36.8133 37.3591C34.9295 37.3591 33.9077 37.1023 32.3321 36.4419L31.7469 36.1649L31.0792 40.083C32.2257 40.5508 34.2801 40.9617 36.4006 41.0002C41.3973 41.0002 44.655 38.6504 44.6917 35.0277C44.7302 33.0411 43.4517 31.5333 40.7277 30.2896C39.0842 29.488 38.0551 28.9414 38.0551 28.1196C38.0551 27.3932 38.9338 26.6301 40.7681 26.6301C42.3438 26.6008 43.4535 26.9456 44.3212 27.2886L44.7706 27.4886L45.4291 23.7154L45.3172 23.7356ZM57.51 23.3247H53.8413C52.6949 23.3247 51.8437 23.631 51.3375 24.7683L44.2863 40.7507H49.2739L50.2791 38.1332L56.3635 38.1423C56.5158 38.7532 56.945 40.7489 56.945 40.7489H61.3492L57.51 23.3247ZM26.277 23.1816H31.026L28.0544 40.615H23.3053L26.277 23.1724V23.1816ZM14.2016 32.7824L14.6877 35.2093L19.3395 23.3247H24.3748L16.8834 40.7214H11.8702L7.7613 25.9899C7.67509 25.7331 7.57053 25.5589 7.31189 25.4085C5.92698 24.6821 4.36964 24.0896 2.65088 23.6787L2.70774 23.3137H10.3697C11.4024 23.3522 12.2426 23.6787 12.5287 24.7866L14.2016 32.7916V32.7824ZM51.6328 34.5691L53.535 29.6879C53.5056 29.7338 53.9257 28.6846 54.1642 28.0242L54.4888 29.5229L55.5894 34.5581H51.6328V34.5691Z" fill="#7A7A7A"/>
</svg>
